<svg width="54" height="28" viewBox="0 0 54 28" fill="none" xmlns="http://www.w3.org/2000/svg">
<rect width="54" height="28" rx="4" fill="#FF4242"/>
<path d="M8.8 14.344H12.944V15.992H8.8V14.344ZM18.566 8.304C19.0993 8.304 19.5873 8.384 20.03 8.544C20.4727 8.69867 20.8513 8.92 21.166 9.208C21.4807 9.496 21.726 9.84267 21.902 10.248C22.078 10.6533 22.166 11.104 22.166 11.6C22.166 12.0267 22.102 12.4213 21.974 12.784C21.8513 13.1467 21.6833 13.4933 21.47 13.824C21.262 14.1547 21.0167 14.4747 20.734 14.784C20.4513 15.0933 20.1553 15.408 19.846 15.728L17.238 18.392C17.494 18.3173 17.7447 18.2613 17.99 18.224C18.2353 18.1813 18.47 18.16 18.694 18.16H21.662C21.8753 18.16 22.0433 18.2213 22.166 18.344C22.294 18.4613 22.358 18.6187 22.358 18.816V20H14.422V19.344C14.422 19.2107 14.4487 19.072 14.502 18.928C14.5607 18.784 14.6513 18.6507 14.774 18.528L18.286 15.008C18.5793 14.7093 18.8407 14.424 19.07 14.152C19.3047 13.88 19.4993 13.6107 19.654 13.344C19.814 13.0773 19.934 12.808 20.014 12.536C20.0993 12.2587 20.142 11.968 20.142 11.664C20.142 11.3867 20.102 11.144 20.022 10.936C19.942 10.7227 19.8273 10.544 19.678 10.4C19.5287 10.256 19.35 10.1493 19.142 10.08C18.9393 10.0053 18.71 9.968 18.454 9.968C17.9793 9.968 17.5873 10.088 17.278 10.328C16.974 10.568 16.7607 10.8907 16.638 11.296C16.5793 11.4987 16.4913 11.6453 16.374 11.736C16.2567 11.8213 16.1073 11.864 15.926 11.864C15.846 11.864 15.758 11.856 15.662 11.84L14.622 11.656C14.702 11.1013 14.8567 10.616 15.086 10.2C15.3153 9.77867 15.6007 9.42933 15.942 9.152C16.2887 8.86933 16.6833 8.65867 17.126 8.52C17.574 8.376 18.054 8.304 18.566 8.304ZM31.9113 14.216C31.9113 15.224 31.8019 16.1013 31.5833 16.848C31.3699 17.5893 31.0713 18.2027 30.6873 18.688C30.3086 19.1733 29.8579 19.536 29.3353 19.776C28.8179 20.0107 28.2579 20.128 27.6553 20.128C27.0526 20.128 26.4926 20.0107 25.9753 19.776C25.4633 19.536 25.0179 19.1733 24.6393 18.688C24.2606 18.2027 23.9646 17.5893 23.7513 16.848C23.5379 16.1013 23.4313 15.224 23.4313 14.216C23.4313 13.2027 23.5379 12.3253 23.7513 11.584C23.9646 10.8427 24.2606 10.2293 24.6393 9.744C25.0179 9.25867 25.4633 8.89867 25.9753 8.664C26.4926 8.424 27.0526 8.304 27.6553 8.304C28.2579 8.304 28.8179 8.424 29.3353 8.664C29.8579 8.89867 30.3086 9.25867 30.6873 9.744C31.0713 10.2293 31.3699 10.8427 31.5833 11.584C31.8019 12.3253 31.9113 13.2027 31.9113 14.216ZM29.8713 14.216C29.8713 13.3787 29.8099 12.6853 29.6873 12.136C29.5646 11.5867 29.3993 11.1493 29.1913 10.824C28.9886 10.4987 28.7539 10.272 28.4873 10.144C28.2206 10.0107 27.9433 9.944 27.6553 9.944C27.3726 9.944 27.0979 10.0107 26.8313 10.144C26.5699 10.272 26.3379 10.4987 26.1353 10.824C25.9326 11.1493 25.7699 11.5867 25.6473 12.136C25.5299 12.6853 25.4713 13.3787 25.4713 14.216C25.4713 15.0533 25.5299 15.7467 25.6473 16.296C25.7699 16.8453 25.9326 17.2827 26.1353 17.608C26.3379 17.9333 26.5699 18.1627 26.8313 18.296C27.0979 18.424 27.3726 18.488 27.6553 18.488C27.9433 18.488 28.2206 18.424 28.4873 18.296C28.7539 18.1627 28.9886 17.9333 29.1913 17.608C29.3993 17.2827 29.5646 16.8453 29.6873 16.296C29.8099 15.7467 29.8713 15.0533 29.8713 14.216ZM38.1445 11.232C38.1445 11.6693 38.0698 12.064 37.9205 12.416C37.7765 12.768 37.5818 13.0693 37.3365 13.32C37.0912 13.5653 36.8058 13.7547 36.4805 13.888C36.1552 14.0213 35.8165 14.088 35.4645 14.088C35.0805 14.088 34.7258 14.0213 34.4005 13.888C34.0752 13.7547 33.7925 13.5653 33.5525 13.32C33.3178 13.0693 33.1338 12.768 33.0005 12.416C32.8672 12.064 32.8005 11.6693 32.8005 11.232C32.8005 10.784 32.8672 10.3787 33.0005 10.016C33.1338 9.65333 33.3178 9.34667 33.5525 9.096C33.7925 8.84533 34.0752 8.65333 34.4005 8.52C34.7258 8.38133 35.0805 8.312 35.4645 8.312C35.8485 8.312 36.2032 8.38133 36.5285 8.52C36.8592 8.65333 37.1445 8.84533 37.3845 9.096C37.6245 9.34667 37.8112 9.65333 37.9445 10.016C38.0778 10.3787 38.1445 10.784 38.1445 11.232ZM36.6165 11.232C36.6165 10.9227 36.5872 10.664 36.5285 10.456C36.4698 10.248 36.3872 10.08 36.2805 9.952C36.1792 9.824 36.0565 9.73333 35.9125 9.68C35.7738 9.62133 35.6245 9.592 35.4645 9.592C35.3045 9.592 35.1552 9.62133 35.0165 9.68C34.8778 9.73333 34.7578 9.824 34.6565 9.952C34.5552 10.08 34.4752 10.248 34.4165 10.456C34.3632 10.664 34.3365 10.9227 34.3365 11.232C34.3365 11.5307 34.3632 11.7813 34.4165 11.984C34.4752 12.1813 34.5552 12.3413 34.6565 12.464C34.7578 12.5867 34.8778 12.6747 35.0165 12.728C35.1552 12.7813 35.3045 12.808 35.4645 12.808C35.6245 12.808 35.7738 12.7813 35.9125 12.728C36.0565 12.6747 36.1792 12.5867 36.2805 12.464C36.3872 12.3413 36.4698 12.1813 36.5285 11.984C36.5872 11.7813 36.6165 11.5307 36.6165 11.232ZM41.9925 8.744C42.0565 8.664 42.1365 8.592 42.2325 8.528C42.3285 8.464 42.4618 8.432 42.6325 8.432H44.0645L35.4725 19.704C35.4085 19.7893 35.3258 19.8613 35.2245 19.92C35.1285 19.9733 35.0112 20 34.8725 20H33.4005L41.9925 8.744ZM44.6725 17.28C44.6725 17.7173 44.5978 18.112 44.4485 18.464C44.3045 18.816 44.1098 19.1173 43.8645 19.368C43.6192 19.6133 43.3338 19.8053 43.0085 19.944C42.6832 20.0773 42.3445 20.144 41.9925 20.144C41.6085 20.144 41.2538 20.0773 40.9285 19.944C40.6032 19.8053 40.3205 19.6133 40.0805 19.368C39.8458 19.1173 39.6618 18.816 39.5285 18.464C39.3952 18.112 39.3285 17.7173 39.3285 17.28C39.3285 16.832 39.3952 16.4267 39.5285 16.064C39.6618 15.7013 39.8458 15.3947 40.0805 15.144C40.3205 14.8933 40.6032 14.7013 40.9285 14.568C41.2538 14.4293 41.6085 14.36 41.9925 14.36C42.3765 14.36 42.7312 14.4293 43.0565 14.568C43.3872 14.7013 43.6725 14.8933 43.9125 15.144C44.1525 15.3947 44.3392 15.7013 44.4725 16.064C44.6058 16.4267 44.6725 16.832 44.6725 17.28ZM43.1525 17.28C43.1525 16.9707 43.1205 16.712 43.0565 16.504C42.9978 16.296 42.9152 16.128 42.8085 16C42.7072 15.872 42.5845 15.7813 42.4405 15.728C42.3018 15.6693 42.1525 15.64 41.9925 15.64C41.8325 15.64 41.6832 15.6693 41.5445 15.728C41.4058 15.7813 41.2858 15.872 41.1845 16C41.0885 16.128 41.0112 16.296 40.9525 16.504C40.8938 16.712 40.8645 16.9707 40.8645 17.28C40.8645 17.5787 40.8938 17.8293 40.9525 18.032C41.0112 18.2347 41.0885 18.3973 41.1845 18.52C41.2858 18.6427 41.4058 18.7307 41.5445 18.784C41.6832 18.8373 41.8325 18.864 41.9925 18.864C42.1525 18.864 42.3018 18.8373 42.4405 18.784C42.5845 18.7307 42.7072 18.6427 42.8085 18.52C42.9152 18.3973 42.9978 18.2347 43.0565 18.032C43.1205 17.8293 43.1525 17.5787 43.1525 17.28Z" fill="white"/>
</svg>
